<?xml version="1.0" encoding="UTF-8" standalone="no"?>
<!DOCTYPE svg PUBLIC "-//W3C//DTD SVG 1.1//EN" "http://www.w3.org/Graphics/SVG/1.1/DTD/svg11.dtd">
<svg version="1.1" xmlns="http://www.w3.org/2000/svg" xmlns:xlink="http://www.w3.org/1999/xlink" preserveAspectRatio="xMidYMid meet" viewBox="187 127 296 296" width="290" height="290"><defs><path d="M190 220L240 220L240 420L190 420L190 220Z" id="aEvTofPei"></path><path d="M340 220L390 220L390 420L340 420L340 220Z" id="a27k6Z0KwV"></path><path d="M390 220L420 190L370 190L340 220L390 220Z" id="a15Qk2K9d4"></path><path d="M450 160L450 310L420 340L420 190L390 220L390 420L480 330L480 130L450 160Z" id="cjEBvZqqS"></path><path d="M240 220L300 160L300 210L270 240L270 390L240 420L240 220Z" id="c5KIofba39"></path><path d="M300 160L300 210L350 210L370 190L420 190L420 310L450 310L450 160L300 160Z" id="c2iRlB9YQP"></path><path d="M420 340L420 310L450 310L420 340Z" id="c1TK7PRhPQ"></path><path d="M300 160L450 160L480 130L280 130L190 220L240 220L300 160Z" id="aSmxos4C"></path><path d="M480 330L390 420L340 420L340 220L350 210L300 210L270 240L270 390L240 420L190 420L190 220L280 130L480 130L480 330Z" id="b6d6zbPuXC"></path></defs><g><g><use xlink:href="#aEvTofPei" opacity="1" fill="#a41e39" fill-opacity="1"></use><g><use xlink:href="#aEvTofPei" opacity="1" fill-opacity="0" stroke="#ffffff" stroke-width="2" stroke-opacity="1"></use></g></g><g><use xlink:href="#a27k6Z0KwV" opacity="1" fill="#a41e39" fill-opacity="1"></use><g><use xlink:href="#a27k6Z0KwV" opacity="1" fill-opacity="0" stroke="#ffffff" stroke-width="2" stroke-opacity="1"></use></g></g><g><use xlink:href="#a15Qk2K9d4" opacity="1" fill="#ffffff" fill-opacity="1"></use><g><use xlink:href="#a15Qk2K9d4" opacity="1" fill-opacity="0" stroke="#ffffff" stroke-width="2" stroke-opacity="1"></use></g></g><g><use xlink:href="#cjEBvZqqS" opacity="1" fill="#4f4f4f" fill-opacity="1"></use><g><use xlink:href="#cjEBvZqqS" opacity="1" fill-opacity="0" stroke="#ffffff" stroke-width="2" stroke-opacity="1"></use></g></g><g><use xlink:href="#c5KIofba39" opacity="1" fill="#4f4f4f" fill-opacity="1"></use><g><use xlink:href="#c5KIofba39" opacity="1" fill-opacity="0" stroke="#ffffff" stroke-width="2" stroke-opacity="1"></use></g></g><g><use xlink:href="#c2iRlB9YQP" opacity="1" fill="#a41e39" fill-opacity="1"></use><g><use xlink:href="#c2iRlB9YQP" opacity="1" fill-opacity="0" stroke="#ffffff" stroke-width="2" stroke-opacity="1"></use></g></g><g><use xlink:href="#c1TK7PRhPQ" opacity="1" fill="#ffffff" fill-opacity="1"></use></g><g><use xlink:href="#aSmxos4C" opacity="1" fill="#ffffff" fill-opacity="1"></use><g><use xlink:href="#aSmxos4C" opacity="1" fill-opacity="0" stroke="#ffffff" stroke-width="2" stroke-opacity="1"></use></g></g><g><g><use xlink:href="#b6d6zbPuXC" opacity="1" fill-opacity="0" stroke="#ffffff" stroke-width="6" stroke-opacity="1"></use></g></g></g></svg>